<svg xmlns="http://www.w3.org/2000/svg" viewBox="0 0 9.87 5.33"><defs><style>.cls-1{fill:#f8f8f8;}</style></defs><g id="Layer_2" data-name="Layer 2"><g id="Layer_1-2" data-name="Layer 1"><path class="cls-1" d="M4.63,1.75a6.05,6.05,0,0,1-.48,2A1.86,1.86,0,0,1,3.09,4.8a1.87,1.87,0,0,1-1.5,0A2.27,2.27,0,0,1,.24,3.23,7.92,7.92,0,0,1,0,.62,6,6,0,0,1,1.73.09,11.69,11.69,0,0,1,5.32.22a16.37,16.37,0,0,1,3.15.88,8.75,8.75,0,0,1,1,.46,2.42,2.42,0,0,1,.42.29,7.56,7.56,0,0,1-1.2,2.68,1.77,1.77,0,0,1-1.76.77A1.84,1.84,0,0,1,5.39,4,8.74,8.74,0,0,1,5,2.06c0-.31,0-.31-.41-.31Zm1,1.62c.2-.14.34-.21.46-.31a1.25,1.25,0,0,1,1.29-.13l.34.16a1.15,1.15,0,0,0,1.67-.81.36.36,0,0,0-.21-.49l-.86-.37a.62.62,0,0,0-.59,0,.83.83,0,0,1-.81,0,1.67,1.67,0,0,0-.58-.16.8.8,0,0,0-.9.58,4.48,4.48,0,0,0,.19,1.5ZM4.31,1.18l-.12,0-.39.45a.79.79,0,0,1-1,.25,3.87,3.87,0,0,1-.55-.25A1.31,1.31,0,0,0,.65,2,1.33,1.33,0,0,0,.8,3.59,1.9,1.9,0,0,0,1,3.38a1.2,1.2,0,0,1,1.55-.45l.34.16A.48.48,0,0,0,3.44,3c.19-.16.42-.3.63-.45a.31.31,0,0,0,.11-.2c.06-.39.09-.79.13-1.19Zm0-.78L4,.35A9,9,0,0,0,.88.68C.34.84.34.82.34,1.37c0,.11,0,.23,0,.34l.08,0a.13.13,0,0,0,.07-.06,1.61,1.61,0,0,1,1.9-.27l.25.13a.66.66,0,0,0,.91-.2C3.83,1,4,.74,4.31.41Zm4,4c-.26-.08-.5-.14-.74-.24l-.36-.21a.73.73,0,0,0-1,.13c-.28.25-.27.41,0,.63a1.39,1.39,0,0,0,2-.31Zm.56-.85c-.77,0-.78.1-1.46-.3a1.08,1.08,0,0,0-.3-.11A1.16,1.16,0,0,0,5.78,4L6,3.86A1.06,1.06,0,0,1,7.4,3.78a1.35,1.35,0,0,0,1.25.15Zm-7.59.64a4.41,4.41,0,0,1,.3-.39.85.85,0,0,1,1.32-.08A1,1,0,0,0,3.2,4a.51.51,0,0,0,.4,0A1.2,1.2,0,0,0,4,3a1,1,0,0,1-1.43.24l-.1,0a1,1,0,0,0-1.33.59c0,.13-.12.29.12.39Zm.3.16a1.12,1.12,0,0,0,1.61-.06l-.58-.49a.44.44,0,0,0-.56,0,1.09,1.09,0,0,0-.47.6ZM5.38,1.22a2,2,0,0,1,1.67,0,.19.19,0,0,0,.19,0,.2.2,0,0,0,.14-.14,7.25,7.25,0,0,0-2-.45ZM5,1.45V.65A.2.2,0,0,0,4.84.52a.2.2,0,0,0-.16.12,2,2,0,0,0,0,.55c0,.07.15.13.32.26Z"/></g></g></svg>